<?xml version="1.0" standalone="no"?><!DOCTYPE svg PUBLIC "-//W3C//DTD SVG 1.1//EN" "http://www.w3.org/Graphics/SVG/1.1/DTD/svg11.dtd"><svg t="1750662836227" class="icon" viewBox="0 0 1024 1024" version="1.1" xmlns="http://www.w3.org/2000/svg" p-id="1010" xmlns:xlink="http://www.w3.org/1999/xlink" width="200" height="200"><path d="M702.05 262.72l-78.08-15.91-46.71-76.41 16.39-65.4 56.57 31.87 37.2 72.68 14.63 53.17z" fill="#1afa29" p-id="1011" data-spm-anchor-id="a313x.collections_detail.0.i1.40933a814EnMbY" class="selected"></path><path d="M575.66 370.19l155.18-138.6L894 259.3l-13.61 80.16-141.51-48.57-104.54 119.78-58.68-40.48z" fill="#1afa29" p-id="1012" data-spm-anchor-id="a313x.collections_detail.0.i0.40933a814EnMbY" class="selected"></path><path d="M227.41 378.8l128.52-97.24 183.12 15.13 220.9 138.21 33.97 249.54-101.19 174.5-332.42 45-100.21-84.27-80.17-60.62-32.65-241.21 80.13-139.04z" fill="#FC7327" p-id="1013"></path><path d="M467.46 777.96h72.48l-36.24-75.24-36.24 75.24zM577.26 695.97l62.4-22.07-31.2 59.58-31.2-37.51z" fill="#FFFFFF" p-id="1014"></path></svg>